<svg class="animated" id="freepik_stories-old-day" xmlns="http://www.w3.org/2000/svg" viewBox="0 0 500 500" version="1.1" xmlns:xlink="http://www.w3.org/1999/xlink" xmlns:svgjs="http://svgjs.com/svgjs"><style>svg#freepik_stories-old-day:not(.animated) .animable {opacity: 0;}svg#freepik_stories-old-day.animated #freepik--background-complete--inject-4 {animation: 1s 1 forwards cubic-bezier(.36,-0.01,.5,1.38) lightSpeedLeft;animation-delay: 0s;}svg#freepik_stories-old-day.animated #freepik--character-2--inject-4 {animation: 1s 1 forwards cubic-bezier(.36,-0.01,.5,1.38) zoomIn;animation-delay: 0s;}            @keyframes lightSpeedLeft {              from {                transform: translate3d(-50%, 0, 0) skewX(20deg);                opacity: 0;              }              60% {                transform: skewX(-10deg);                opacity: 1;              }              80% {                transform: skewX(2deg);              }              to {                opacity: 1;                transform: translate3d(0, 0, 0);              }            }                    @keyframes zoomIn {                0% {                    opacity: 0;                    transform: scale(0.5);                }                100% {                    opacity: 1;                    transform: scale(1);                }            }        .animator-hidden { display: none; }</style><g id="freepik--background-complete--inject-4" class="animable animator-hidden animator-active" style="transform-origin: 250px 226.87px;"><rect y="382.4" width="500" height="0.25" style="fill: rgb(235, 235, 235); transform-origin: 250px 382.525px;" id="elohx2ho0qpm" class="animable"></rect><rect x="416.78" y="398.49" width="33.12" height="0.25" style="fill: rgb(235, 235, 235); transform-origin: 433.34px 398.615px;" id="elctsx8mskcb" class="animable"></rect><rect x="239.64" y="395.44" width="30.22" height="0.25" style="fill: rgb(235, 235, 235); transform-origin: 254.75px 395.565px;" id="eli4csuwxral" class="animable"></rect><rect x="345.89" y="389.21" width="69.89" height="0.25" style="fill: rgb(235, 235, 235); transform-origin: 380.835px 389.335px;" id="el5mshtefk9w3" class="animable"></rect><rect x="52.46" y="390.89" width="167.14" height="0.25" style="fill: rgb(235, 235, 235); transform-origin: 136.03px 391.015px;" id="eln4f5s7hslbh" class="animable"></rect><rect x="228.5" y="390.89" width="6.33" height="0.25" style="fill: rgb(235, 235, 235); transform-origin: 231.665px 391.015px;" id="elror9g0tda5e" class="animable"></rect><path d="M237,337.8H43.92a5.71,5.71,0,0,1-5.71-5.71V60.66A5.71,5.71,0,0,1,43.92,55H237a5.71,5.71,0,0,1,5.71,5.71V332.09A5.71,5.71,0,0,1,237,337.8ZM43.92,55.2a5.47,5.47,0,0,0-5.46,5.46V332.09a5.47,5.47,0,0,0,5.46,5.46H237a5.47,5.47,0,0,0,5.46-5.46V60.66A5.47,5.47,0,0,0,237,55.2Z" style="fill: rgb(235, 235, 235); transform-origin: 140.46px 196.4px;" id="el4g1tg6qfgzc" class="animable"></path><path d="M453.31,337.8H260.21a5.72,5.72,0,0,1-5.71-5.71V60.66A5.72,5.72,0,0,1,260.21,55h193.1A5.71,5.71,0,0,1,459,60.66V332.09A5.71,5.71,0,0,1,453.31,337.8ZM260.21,55.2a5.47,5.47,0,0,0-5.46,5.46V332.09a5.47,5.47,0,0,0,5.46,5.46h193.1a5.47,5.47,0,0,0,5.46-5.46V60.66a5.47,5.47,0,0,0-5.46-5.46Z" style="fill: rgb(235, 235, 235); transform-origin: 356.75px 196.4px;" id="eltkw9lgt1rz" class="animable"></path><rect x="351.33" y="248.78" width="50" height="133.62" style="fill: rgb(245, 245, 245); transform-origin: 376.33px 315.59px;" id="el9r6a10pcbu" class="animable"></rect><g id="elw0k7tmtcvwn"><rect x="401.33" y="248.78" width="27.11" height="133.62" style="fill: rgb(235, 235, 235); transform-origin: 414.885px 315.59px; transform: rotate(180deg);" class="animable" id="elmeolrhq3d8q"></rect></g><rect x="212.22" y="248.78" width="50" height="133.62" style="fill: rgb(245, 245, 245); transform-origin: 237.22px 315.59px;" id="elvv3olso7b6f" class="animable"></rect><rect x="351.33" y="248.78" width="50" height="3.11" style="fill: rgb(240, 240, 240); transform-origin: 376.33px 250.335px;" id="ela9ud2ev5l8d" class="animable"></rect><rect x="212.22" y="248.78" width="50" height="3.11" style="fill: rgb(240, 240, 240); transform-origin: 237.22px 250.335px;" id="elvrz88sc225" class="animable"></rect><g id="elgcftwteowr"><rect x="262.22" y="248.78" width="17.67" height="133.62" style="fill: rgb(235, 235, 235); transform-origin: 271.055px 315.59px; transform: rotate(180deg);" class="animable" id="elkybzoow0oqd"></rect></g><rect x="279.89" y="248.78" width="71.44" height="133.62" style="fill: rgb(224, 224, 224); transform-origin: 315.61px 315.59px;" id="elyj070eyax7f" class="animable"></rect><rect x="208.11" y="230.15" width="197.56" height="18.62" style="fill: rgb(245, 245, 245); transform-origin: 306.89px 239.46px;" id="el8m5r47ndvln" class="animable"></rect><g id="elt099tqky67"><rect x="405.67" y="230.15" width="26.33" height="18.62" style="fill: rgb(235, 235, 235); transform-origin: 418.835px 239.46px; transform: rotate(180deg);" class="animable" id="elrmsgob8bn9h"></rect></g><rect x="210.89" y="276.11" width="23.11" height="7.78" style="fill: rgb(240, 240, 240); transform-origin: 222.445px 280px;" id="elcodsu9iledg" class="animable"></rect><rect x="222.44" y="283.89" width="23.11" height="7.78" style="fill: rgb(240, 240, 240); transform-origin: 233.995px 287.78px;" id="elly3ai7dkiir" class="animable"></rect><g id="el0n7p31ag6799"><rect x="233.87" y="333.11" width="23.11" height="7.78" style="fill: rgb(240, 240, 240); transform-origin: 245.425px 337px; transform: rotate(180deg);" class="animable" id="elijyfqh85bzo"></rect></g><g id="el4gpx18rkzwj"><rect x="212.22" y="312.39" width="23.11" height="7.78" style="fill: rgb(240, 240, 240); transform-origin: 223.775px 316.28px; transform: rotate(180deg);" class="animable" id="el2880iqicwyk"></rect></g><g id="ele30smloqzia"><rect x="239.78" y="257.89" width="23.11" height="7.78" style="fill: rgb(240, 240, 240); transform-origin: 251.335px 261.78px; transform: rotate(180deg);" class="animable" id="elz66ki9ebek"></rect></g><g id="ely503dietn1f"><rect x="228.22" y="367.72" width="23.11" height="7.78" style="fill: rgb(240, 240, 240); transform-origin: 239.775px 371.61px; transform: rotate(180deg);" class="animable" id="elxb7c4ocj11"></rect></g><g id="els5j16edbzhd"><rect x="222.31" y="340.89" width="23.11" height="7.78" style="fill: rgb(240, 240, 240); transform-origin: 233.865px 344.78px; transform: rotate(180deg);" class="animable" id="elis1micfmfsc"></rect></g><rect x="358.13" y="292.5" width="23.11" height="7.78" style="fill: rgb(240, 240, 240); transform-origin: 369.685px 296.39px;" id="el7lcm6bxeh1r" class="animable"></rect><rect x="379.04" y="334.89" width="23.11" height="7.78" style="fill: rgb(240, 240, 240); transform-origin: 390.595px 338.78px;" id="elyxzafh7o5u" class="animable"></rect><rect x="357.4" y="342.67" width="23.11" height="7.78" style="fill: rgb(240, 240, 240); transform-origin: 368.955px 346.56px;" id="elgeo6cgi9aqh" class="animable"></rect><rect x="373.5" y="367.72" width="23.11" height="7.78" style="fill: rgb(240, 240, 240); transform-origin: 385.055px 371.61px;" id="el6s567w9znop" class="animable"></rect><rect x="367.49" y="317.58" width="23.11" height="7.78" style="fill: rgb(240, 240, 240); transform-origin: 379.045px 321.47px;" id="elhhgcj9qzboc" class="animable"></rect><rect x="363.78" y="257.89" width="23.11" height="7.78" style="fill: rgb(240, 240, 240); transform-origin: 375.335px 261.78px;" id="el5z27uagpk7o" class="animable"></rect><rect x="369.69" y="284.72" width="23.11" height="7.78" style="fill: rgb(240, 240, 240); transform-origin: 381.245px 288.61px;" id="el7qlnbcphpcw" class="animable"></rect><path d="M373,110.33a4.57,4.57,0,0,1,1.87-4.66l.71,1.18a3.25,3.25,0,0,0-1.21,3.3Z" style="fill: rgb(224, 224, 224); transform-origin: 374.244px 108px;" id="els8dk17cz6l" class="animable"></path><rect x="371.54" y="109.13" width="4.23" height="33.99" style="fill: rgb(245, 245, 245); transform-origin: 373.655px 126.125px;" id="el9ft825t9px7" class="animable"></rect><path d="M346,114.08a4.57,4.57,0,0,1,2.8-4.18l.45,1.3a3.25,3.25,0,0,0-1.88,3Z" style="fill: rgb(224, 224, 224); transform-origin: 347.625px 112.05px;" id="elm64hgirzaxh" class="animable"></path><rect x="344.65" y="113.8" width="4.23" height="33.99" style="fill: rgb(245, 245, 245); transform-origin: 346.765px 130.795px;" id="elndw2pkqlf2e" class="animable"></rect><path d="M400.54,116.31a4.61,4.61,0,0,1,0-5l1.1.83a3.27,3.27,0,0,0,.11,3.52Z" style="fill: rgb(224, 224, 224); transform-origin: 400.777px 113.81px;" id="elypj2mt29im" class="animable"></path><rect x="398.43" y="113.8" width="4.23" height="33.99" style="fill: rgb(245, 245, 245); transform-origin: 400.545px 130.795px;" id="elan7r6esq7gi" class="animable"></rect><path d="M359.39,214.84h28.52a3.49,3.49,0,0,1,3.49,3.49v7.76a0,0,0,0,1,0,0H355.9a0,0,0,0,1,0,0v-7.76A3.49,3.49,0,0,1,359.39,214.84Z" style="fill: rgb(240, 240, 240); transform-origin: 373.65px 220.465px;" id="elcm29hu01kpr" class="animable"></path><path d="M366.15,211.11h15A1.84,1.84,0,0,1,383,213V217a0,0,0,0,1,0,0h-18.7a0,0,0,0,1,0,0V213A1.84,1.84,0,0,1,366.15,211.11Z" style="fill: rgb(240, 240, 240); transform-origin: 373.65px 214.055px;" id="eljieruov8dp" class="animable"></path><g id="elxmxfan2uizj"><path d="M363.75,174.81h19.82a2.43,2.43,0,0,1,2.43,2.43v3.35a2,2,0,0,1-2,2H363.36a2,2,0,0,1-2-2v-3.35A2.43,2.43,0,0,1,363.75,174.81Z" style="fill: rgb(240, 240, 240); transform-origin: 373.68px 178.7px; transform: rotate(180deg);" class="animable" id="el9wz1u3d8hm"></path></g><path d="M373.29,187.68H374a6.14,6.14,0,0,0,6.13-6.13h-13A6.14,6.14,0,0,0,373.29,187.68Z" style="fill: rgb(240, 240, 240); transform-origin: 373.63px 184.615px;" id="eljo0fwokq9r" class="animable"></path><path d="M395,230.15H352.29a5,5,0,0,1,5-5.05H390a5,5,0,0,1,5,5.05Z" style="fill: rgb(240, 240, 240); transform-origin: 373.645px 227.625px;" id="elf2e3ub48378" class="animable"></path><ellipse cx="373.65" cy="199.83" rx="4.86" ry="17.21" style="fill: rgb(240, 240, 240); transform-origin: 373.65px 199.83px;" id="elqa7ss5md01" class="animable"></ellipse><path d="M369.55,170.31h8.21a1.41,1.41,0,0,1,1.41,1.41v4.51a0,0,0,0,1,0,0h-11a0,0,0,0,1,0,0v-4.51A1.41,1.41,0,0,1,369.55,170.31Z" style="fill: rgb(240, 240, 240); transform-origin: 373.67px 173.27px;" id="elj9laif4t2hh" class="animable"></path><g id="el87i7cu6q2w3"><path d="M373.3,141.82H374a3.48,3.48,0,0,1,3.48,3.48v1.57a0,0,0,0,1,0,0h-7.67a0,0,0,0,1,0,0V145.3A3.48,3.48,0,0,1,373.3,141.82Z" style="fill: rgb(240, 240, 240); transform-origin: 373.645px 144.345px; transform: rotate(180deg);" class="animable" id="el00r494n3ooxxd"></path></g><ellipse cx="373.65" cy="159.68" rx="2.87" ry="16.55" style="fill: rgb(240, 240, 240); transform-origin: 373.65px 159.68px;" id="elgkrj29w96np" class="animable"></ellipse><path d="M342.66,168.09h8.21a1.41,1.41,0,0,1,1.41,1.41v2.57a1.95,1.95,0,0,1-1.95,1.95h-7.15a1.95,1.95,0,0,1-1.95-1.95V169.5A1.41,1.41,0,0,1,342.66,168.09Z" style="fill: rgb(240, 240, 240); transform-origin: 346.755px 171.055px;" id="elg642qm47ngj" class="animable"></path><g id="el8x5ghar7a9j"><path d="M346.07,146.11h1.4a3.13,3.13,0,0,1,3.13,3.13v1a0,0,0,0,1,0,0h-7.67a0,0,0,0,1,0,0v-1A3.13,3.13,0,0,1,346.07,146.11Z" style="fill: rgb(240, 240, 240); transform-origin: 346.765px 148.175px; transform: rotate(-180deg);" class="animable" id="el9n98728xq6d"></path></g><ellipse cx="346.77" cy="159.96" rx="2.87" ry="12.79" style="fill: rgb(240, 240, 240); transform-origin: 346.77px 159.96px;" id="elv2reu7c8wvd" class="animable"></ellipse><polygon points="373.65 178.43 368.79 179.41 344.11 173.27 349.13 171.37 373.65 178.43" style="fill: rgb(240, 240, 240); transform-origin: 358.88px 175.39px;" id="elgd7bknwsnk" class="animable"></polygon><g id="el7wk5nue82p3"><path d="M397,168.09h7.15a1.95,1.95,0,0,1,1.95,1.95v2.57a1.41,1.41,0,0,1-1.41,1.41h-8.21A1.41,1.41,0,0,1,395,172.6V170A1.95,1.95,0,0,1,397,168.09Z" style="fill: rgb(240, 240, 240); transform-origin: 400.55px 171.056px; transform: rotate(180deg);" class="animable" id="elp6jv4jaeolf"></path></g><path d="M396.71,146.11h7.67a0,0,0,0,1,0,0v1a3.13,3.13,0,0,1-3.13,3.13h-1.4a3.13,3.13,0,0,1-3.13-3.13v-1A0,0,0,0,1,396.71,146.11Z" style="fill: rgb(240, 240, 240); transform-origin: 400.545px 148.175px;" id="elu33qq23ftg" class="animable"></path><path d="M397.67,160c0,7.06,1.29,12.79,2.87,12.79s2.87-5.73,2.87-12.79-1.28-12.8-2.87-12.8S397.67,152.89,397.67,160Z" style="fill: rgb(240, 240, 240); transform-origin: 400.54px 159.995px;" id="ellmdigpcvfe" class="animable"></path><polygon points="373.65 178.43 378.52 179.41 403.2 173.27 398.19 171.37 373.65 178.43" style="fill: rgb(240, 240, 240); transform-origin: 388.425px 175.39px;" id="el9w2sp3bcavt" class="animable"></polygon><path d="M70.54,359.44h42.77a5.24,5.24,0,0,1,5.24,5.24v11.64a0,0,0,0,1,0,0H65.3a0,0,0,0,1,0,0V364.67A5.24,5.24,0,0,1,70.54,359.44Z" style="fill: rgb(240, 240, 240); transform-origin: 91.925px 367.88px;" id="elwdkuh1fp8za" class="animable"></path><path d="M80.66,353.85h22.52a2.76,2.76,0,0,1,2.76,2.76v6.13a0,0,0,0,1,0,0h-28a0,0,0,0,1,0,0V356.6A2.76,2.76,0,0,1,80.66,353.85Z" style="fill: rgb(240, 240, 240); transform-origin: 91.94px 358.295px;" id="elg5vgm7bbuvj" class="animable"></path><path d="M91.38,243.93h1.08a9.16,9.16,0,0,0,6.18-2.38A3.93,3.93,0,0,0,96,234.74H87.88a3.93,3.93,0,0,0-2.68,6.81A9.18,9.18,0,0,0,91.38,243.93Z" style="fill: rgb(240, 240, 240); transform-origin: 91.9201px 239.335px;" id="elx3v52z5cwrk" class="animable"></path><path d="M92.46,280.53H91.38a9.19,9.19,0,0,0-6.18,2.39,3.93,3.93,0,0,0,2.68,6.81H96a3.93,3.93,0,0,0,2.67-6.81A9.17,9.17,0,0,0,92.46,280.53Z" style="fill: rgb(240, 240, 240); transform-origin: 91.935px 285.13px;" id="el72w4imu8hls" class="animable"></path><path d="M124,382.4H59.88a7.58,7.58,0,0,1,7.58-7.58h48.93A7.57,7.57,0,0,1,124,382.4Z" style="fill: rgb(240, 240, 240); transform-origin: 91.94px 378.61px;" id="el7u81iqbbgxn" class="animable"></path><ellipse cx="91.92" cy="262.29" rx="7.29" ry="25.8" style="fill: rgb(240, 240, 240); transform-origin: 91.92px 262.29px;" id="el2fbr2aprknn" class="animable"></ellipse><path d="M95,355.8H88.89V116.7a3,3,0,0,1,3-3h0a3,3,0,0,1,3,3Z" style="fill: rgb(240, 240, 240); transform-origin: 91.945px 234.75px;" id="ell7p8gloi1m" class="animable"></path><polygon points="120 176.83 63.84 176.83 72.81 121.17 111.03 121.17 120 176.83" style="fill: rgb(245, 245, 245); transform-origin: 91.92px 149px;" id="eluh2khtbatmk" class="animable"></polygon><path d="M296.92,174V110.77a6.34,6.34,0,0,1,1.81-4.37,12.88,12.88,0,0,0-18.21-18.22A6.36,6.36,0,0,1,276.15,90H171.43a6.34,6.34,0,0,1-4.37-1.81,12.89,12.89,0,0,0-18.22,18.22,6.34,6.34,0,0,1,1.81,4.37V174a6.34,6.34,0,0,1-1.81,4.37,12.89,12.89,0,0,0,18.22,18.22,6.3,6.3,0,0,1,4.37-1.81H276.15a6.32,6.32,0,0,1,4.37,1.81,12.88,12.88,0,0,0,18.21-18.22A6.34,6.34,0,0,1,296.92,174Z" style="fill: rgb(230, 230, 230); transform-origin: 223.914px 142.385px;" id="elp64cweock" class="animable"></path><path d="M294.8,174V110.77a6.34,6.34,0,0,1,1.81-4.37A12.88,12.88,0,0,0,278.4,88.18,6.36,6.36,0,0,1,274,90H169.31a6.34,6.34,0,0,1-4.37-1.81,12.89,12.89,0,0,0-18.22,18.22,6.34,6.34,0,0,1,1.81,4.37V174a6.34,6.34,0,0,1-1.81,4.37,12.89,12.89,0,0,0,18.22,18.22,6.3,6.3,0,0,1,4.37-1.81H274a6.32,6.32,0,0,1,4.37,1.81,12.88,12.88,0,0,0,18.21-18.22A6.34,6.34,0,0,1,294.8,174Z" style="fill: rgb(240, 240, 240); transform-origin: 221.793px 142.386px;" id="el37f6t9d6yfj" class="animable"></path><rect x="162.1" y="99.72" width="119.14" height="85.38" rx="3.26" style="fill: rgb(250, 250, 250); transform-origin: 221.67px 142.41px;" id="el3wz0m3dszl5" class="animable"></rect><g id="elox4ji2a1nm"><g style="opacity: 0.6; transform-origin: 223.78px 143.831px;" class="animable" id="el9ipwax8xjbw"><g id="el762gy0snenw"><circle cx="239.47" cy="138.96" r="25.73" style="fill: rgb(255, 255, 255); transform-origin: 239.47px 138.96px; transform: rotate(-45deg);" class="animable" id="elbe65vv7ddd4"></circle></g><path d="M171,158.65a55.26,55.26,0,0,1,14.1,5.74c-2.22-11.21,4.6-20,4.6-20s9.24,7,14.05,16.44a26.8,26.8,0,0,1,4.83-3.8,32.33,32.33,0,0,1-1.25-5.66,70.47,70.47,0,0,1,18,7.33c-2.83-14.32,5.89-25.61,5.89-25.61S243,142,249.19,154a33.91,33.91,0,0,1,8-5.88S263.39,157,264,166.6a49.9,49.9,0,0,1,12.56-.73s-.25,11.41-9.23,17.64a21.52,21.52,0,0,1-2.71,1.58H182.54A39.56,39.56,0,0,1,172,176.68a31.5,31.5,0,0,1,7.24-.93A32.09,32.09,0,0,1,171,158.65Z" style="fill: rgb(235, 235, 235); transform-origin: 223.78px 159.09px;" id="eltsv8axcttw" class="animable"></path><path d="M229.58,116.33a18.31,18.31,0,0,0-9.88-3.1c-4.49,0-6.91,2.12-5.9,4.9a10.26,10.26,0,0,0-2.62-.35c-3.05,0-4.54,1.6-3.32,3.59a5.12,5.12,0,0,0,.41.54h30.09a3.21,3.21,0,0,0-.5-1.29C236.53,118.45,233,116.66,229.58,116.33Z" style="fill: rgb(235, 235, 235); transform-origin: 222.897px 117.57px;" id="eljnjdb89apz" class="animable"></path><path d="M256.27,129.29c.22-1.07,1.52-1.81,3.54-1.81a10,10,0,0,1,7,2.86,3.6,3.6,0,0,1,1.27-.2,5.81,5.81,0,0,1,4.53,2.09,3.18,3.18,0,0,1,.16.32H255.16a3.71,3.71,0,0,1-.65-.75C253.73,130.53,254.52,129.48,256.27,129.29Z" style="fill: rgb(235, 235, 235); transform-origin: 263.49px 130.015px;" id="elerzpv71a4b" class="animable"></path><path d="M175.36,126.76c.22-1.08,1.52-1.81,3.54-1.81a10,10,0,0,1,7,2.86,3.58,3.58,0,0,1,1.27-.21,5.79,5.79,0,0,1,4.53,2.1,2.39,2.39,0,0,1,.16.32H174.25a4.11,4.11,0,0,1-.65-.76C172.82,128,173.61,127,175.36,126.76Z" style="fill: rgb(240, 240, 240); transform-origin: 182.58px 127.485px;" id="elk6cilwx57w" class="animable"></path></g></g></g><g id="freepik--Shadow--inject-4" class="animable" style="transform-origin: 250px 416.24px;"><ellipse id="freepik--path--inject-4" cx="250" cy="416.24" rx="193.89" ry="11.32" style="fill: rgb(245, 245, 245); transform-origin: 250px 416.24px;" class="animable"></ellipse></g><g id="freepik--character-1--inject-4" class="animable" style="transform-origin: 188.995px 247.242px;"><path d="M151.43,203l-3-3.83-11,1.18L129.65,208l11.79,5.86s0,0,0,0l3.55-3.34S153,207.66,151.43,203Z" style="fill: #FCA311; transform-origin: 140.642px 206.515px;" id="el8r3xru9c9o5" class="animable"></path><g id="ells7mc6s20h"><path d="M151.43,203l-3-3.83-11,1.18L129.65,208l11.79,5.86s0,0,0,0l3.55-3.34S153,207.66,151.43,203Z" style="fill: rgb(255, 255, 255); opacity: 0.7; transform-origin: 140.642px 206.515px;" class="animable" id="elp3aqavj4die"></path></g><polygon points="146.67 196.58 143.53 198.33 149.17 210.08 152.49 207.38 146.67 196.58" style="fill: #FCA311; transform-origin: 148.01px 203.33px;" id="el0uewzg7ew7b" class="animable"></polygon><g id="elb2q3zpzfwpk"><polygon points="146.67 196.58 143.53 198.33 149.17 210.08 152.49 207.38 146.67 196.58" style="fill: rgb(255, 255, 255); opacity: 0.8; transform-origin: 148.01px 203.33px;" class="animable" id="elj8iwyurvfgd"></polygon></g><path d="M207.43,146.85c-.3,1.05-.56,1.83-.85,2.72l-.87,2.55c-.59,1.69-1.22,3.36-1.87,5q-2,5-4.3,9.84a86.27,86.27,0,0,1-12,18.82,45.75,45.75,0,0,1-4.23,4.24l-1.11,1-1.12.9c-.75.59-1.49,1.2-2.24,1.73a100.41,100.41,0,0,1-9.07,6c-3.05,1.81-6.13,3.49-9.24,5.08q-2.33,1.2-4.68,2.32c-1.59.77-3.12,1.47-4.83,2.23l-6-13.08c1.32-.67,2.81-1.43,4.22-2.19s2.83-1.55,4.23-2.34c2.8-1.6,5.54-3.27,8.19-5a84.9,84.9,0,0,0,7.5-5.44c.61-.46,1.13-1,1.68-1.43l.81-.72.73-.72a32.49,32.49,0,0,0,2.73-3A69.85,69.85,0,0,0,184,159.81c1.23-2.85,2.36-5.79,3.38-8.77.51-1.48,1-3,1.45-4.48l.65-2.25c.2-.72.43-1.54.56-2.11Z" style="fill: rgb(38, 50, 56); transform-origin: 176.225px 175.74px;" id="elbo4c4esbkco" class="animable"></path><g id="elbacgml7dg8k"><path d="M197.58,160.07c-8.8,3.12-15.25,18.58-16.67,32a.75.75,0,0,1,.17-.14l1.11-.9,1.11-1a43.62,43.62,0,0,0,4.24-4.25,85.24,85.24,0,0,0,12-18.81c.14-.28.27-.55.39-.83Z" style="opacity: 0.2; transform-origin: 190.42px 176.07px;" class="animable" id="elxma9vinaztk"></path></g><path d="M194.62,407.29h8.3a.56.56,0,0,1,.59.54L204,414a1.39,1.39,0,0,1-1.37,1.4c-3.08-.06-1.46.07-5.35.07-2.39,0-8.67.81-14.24.81-3.23,0-1.9-2.69-.56-3.17,6.92-2.45,8.59-3.54,10.79-5.29A2.23,2.23,0,0,1,194.62,407.29Z" style="fill: rgb(38, 50, 56); transform-origin: 192.517px 411.785px;" id="elkbki9qeii2" class="animable"></path><path d="M192.68,208.48s-3.9,74-4.94,92.65c-1.27,22.78,2.26,95.66,3.69,106.51a1.49,1.49,0,0,0,1.54,1.3l9.66-.41a1.49,1.49,0,0,0,1.43-1.56c-.53-11.31,2.21-83.64,6.67-105.66,5.25-25.95,10.07-92.83,10.07-92.83Z" style="fill: #FCA311; transform-origin: 204.135px 308.711px;" id="elido5fnrtfsr" class="animable"></path><g id="el9o5ms0gjd7d"><path d="M213.54,231c-5.33,13.57-5,40.41-2.73,49.87,3.21-15.53,6.88-34.1,9.71-48.54C219.44,228.6,216.77,222.72,213.54,231Z" style="opacity: 0.3; transform-origin: 214.886px 253.834px;" class="animable" id="el3db7m159y38"></path></g><path d="M230,407.29h8.84a.57.57,0,0,1,.59.54l.48,6.12a1.39,1.39,0,0,1-1.37,1.4c-3.07-.06.74.07-3.15.07-2.39,0-7.81.81-13.38.81-2.38,0-1.82-2.49-.56-3.17,3.78-2,5.19-3.89,7.39-5.63C229.2,407.11,229.49,407.29,230,407.29Z" style="fill: rgb(38, 50, 56); transform-origin: 230.138px 411.735px;" id="el53hs70wh867" class="animable"></path><path d="M239.35,416.23h-4.24a.65.65,0,0,1-.64-.81l.48-1.91,4.83-.65.23,2.66A.65.65,0,0,1,239.35,416.23Z" style="fill: rgb(38, 50, 56); transform-origin: 237.231px 414.545px;" id="elb9mrk92yjus" class="animable"></path><path d="M208,208.48s4.07,59.72,5.53,82.25c1.47,22.89,10.6,104.67,12.31,116.32a1.63,1.63,0,0,0,1.61,1.39h11.24a1.63,1.63,0,0,0,1.63-1.75c-1-12.72-4.15-91.3-3.53-113.72.73-26.51-2.07-84.49-2.07-84.49Z" style="fill: #FCA311; transform-origin: 224.162px 308.46px;" id="elwfbgm7ofht9" class="animable"></path><path d="M192.68,208.48h42.08c.27-3.75-.7-16-.18-31.55a199.94,199.94,0,0,1,3.92-34.32c.18-.85.36-1.68.56-2.53,0,0-2.14-.44-5.2-.88-2.54-.38-5.72-.76-8.84-.91a159.24,159.24,0,0,0-17.89,0c-2.74.26-5.42.72-7.56,1.13-2.74.55-4.35,1-4.35,1S185,164.24,192.68,208.48Z" style="fill: #FCA311; transform-origin: 214.44px 173.259px;" id="el77oah82mh1k" class="animable"></path><path d="M208,138.23c5.19-1.23,6.08-4.45,5.7-8a20.57,20.57,0,0,0-.43-2.63l6.47-5.41,4.76-4c-1.29,5.76-2.7,16.25,1.23,20.1a74.83,74.83,0,0,1-17.16,10.71C202.39,144.53,208,138.23,208,138.23Z" style="fill: rgb(206, 122, 99); transform-origin: 215.699px 133.595px;" id="elj454xwrbyhe" class="animable"></path><g id="elppxjnur8irj"><path d="M213.25,127.62a20.57,20.57,0,0,1,.43,2.63c2.31.59,6.26-1.86,7.3-4.42a3.4,3.4,0,0,0-1.26-3.62Z" style="opacity: 0.2; transform-origin: 217.174px 126.274px;" class="animable" id="el66ja1umjl84"></path></g><path d="M209.46,103c-2.79-.47-4.14,6.77-.79,9Z" style="fill: rgb(38, 50, 56); transform-origin: 208.077px 107.489px;" id="el4e2y3x2qpmo" class="animable"></path><path d="M228.83,110.34c-1.64,7.67-2.21,12.23-6.7,15.71-6.77,5.24-15.77.54-16.45-7.39-.62-7.14,2.16-18.48,10.18-20.63A10.37,10.37,0,0,1,228.83,110.34Z" style="fill: rgb(206, 122, 99); transform-origin: 217.348px 112.945px;" id="elsdo1oc8y6jh" class="animable"></path><path d="M226.54,115.39l-3.49.58a6.58,6.58,0,0,1,1.46-3.49c0-1.11-4.53-4.64-2.44-9-3.71.66-14,2.32-14.68-2.3-.5-3.56,5.19-3,5.31-2.39,1-1.46,10.46-4.82,16.37,1.15S231.09,114.69,226.54,115.39Z" style="fill: rgb(38, 50, 56); transform-origin: 219.714px 106.246px;" id="el5ejbqxequ3r" class="animable"></path><path d="M230.39,117.39a8.3,8.3,0,0,1-4.41,3.49c-2.34.72-3.17-1.43-2.25-3.74.83-2.07,3.05-4.93,5.26-4.64S231.69,115.33,230.39,117.39Z" style="fill: rgb(206, 122, 99); transform-origin: 227.232px 116.75px;" id="elkzskv0cya1" class="animable"></path><path d="M216.79,111.07c-.1.63-.51,1.1-.92,1s-.67-.6-.57-1.22.5-1.1.91-1S216.88,110.44,216.79,111.07Z" style="fill: rgb(38, 50, 56); transform-origin: 216.043px 110.96px;" id="el84h7fjnrxkn" class="animable"></path><path d="M209.68,110.2c-.1.63-.51,1.09-.92,1s-.66-.6-.57-1.23.5-1.09.92-1S209.77,109.57,209.68,110.2Z" style="fill: rgb(38, 50, 56); transform-origin: 208.935px 110.085px;" id="elf8hdolu4vbl" class="animable"></path><path d="M211.89,110.79a23.5,23.5,0,0,1-3.81,5,3.62,3.62,0,0,0,2.92.93Z" style="fill: rgb(186, 77, 60); transform-origin: 209.985px 113.77px;" id="eljehmrvuc7en" class="animable"></path><path d="M209.8,120.84a5.39,5.39,0,0,0,4.12-1.13.19.19,0,0,0-.25-.28,5.15,5.15,0,0,1-4.51.91.18.18,0,1,0-.08.36A5.06,5.06,0,0,0,209.8,120.84Z" style="fill: rgb(38, 50, 56); transform-origin: 211.449px 120.146px;" id="elhfwaj9akwog" class="animable"></path><path d="M219.62,109.35a.39.39,0,0,0,.18,0,.37.37,0,0,0,.14-.51,3.57,3.57,0,0,0-2.79-1.9.35.35,0,0,0-.38.35.37.37,0,0,0,.35.39,2.86,2.86,0,0,1,2.17,1.52A.39.39,0,0,0,219.62,109.35Z" style="fill: rgb(38, 50, 56); transform-origin: 218.38px 108.15px;" id="el92xdf4ms3kw" class="animable"></path><path d="M206.15,107.5a.34.34,0,0,0,.33-.09,3.06,3.06,0,0,1,2.6-.87.38.38,0,0,0,.44-.29.36.36,0,0,0-.28-.44h0a3.77,3.77,0,0,0-3.26,1.06.37.37,0,0,0,0,.52A.31.31,0,0,0,206.15,107.5Z" style="fill: rgb(38, 50, 56); transform-origin: 207.702px 106.637px;" id="elgndv736w7vk" class="animable"></path><path d="M224.71,136.55l.87-5.86a25.39,25.39,0,0,0-8.8.09,30.7,30.7,0,0,1-1.1,6.25,51.1,51.1,0,0,1-.53-6.38,13.42,13.42,0,0,0-4,.13c-.37.87.36,3.62.27,5.31l-5.3,1.95,5.72,10.25,16.16-10.57Z" style="fill: #FCA311; transform-origin: 217.06px 139.32px;" id="ell9fpzj3ql6" class="animable"></path><g id="elmau3femw1o"><path d="M224.71,136.55l.87-5.86a25.39,25.39,0,0,0-8.8.09,30.7,30.7,0,0,1-1.1,6.25,51.1,51.1,0,0,1-.53-6.38,13.42,13.42,0,0,0-4,.13c-.37.87.36,3.62.27,5.31l-5.3,1.95,5.72,10.25,16.16-10.57Z" style="fill: rgb(255, 255, 255); opacity: 0.6; transform-origin: 217.06px 139.32px;" class="animable" id="el6azflott6h7"></path></g><g id="el86p5t5v01ah"><path d="M216.86,137.85c-4.59,0-5.56-1.54-5.62-1.63a.26.26,0,0,1,.1-.36.27.27,0,0,1,.36.09s2,2.81,13,.34a.26.26,0,0,1,.31.2.25.25,0,0,1-.2.32A36.49,36.49,0,0,1,216.86,137.85Z" style="fill: #FCA311; opacity: 0.2; transform-origin: 218.113px 136.838px;" class="animable" id="elpe8wx71wsp"></path></g><path d="M208.08,136.65s4.07,10.61,9.25,15.09c.83,7-2.1,170.5,1.95,193.61-6.82,1.33-6.29.1-16.48,1.54-9.11,1.29-20.78.23-20.78.23-3.46-32.31-3.27-114.73,2.75-144.27.17-36.49,4.22-61.46,6.28-62.7C194.58,138,208.08,136.65,208.08,136.65Z" style="fill: rgb(38, 50, 56); transform-origin: 199.517px 242.09px;" id="ellpgpqk5qhpg" class="animable"></path><g id="elfw6gxnqlph7"><path d="M217.33,151.74a27.82,27.82,0,0,1-5.48-7.22c-5.1,3.37-10.16,6.85-12.37,8.75-.79,6.66-11,162.5-6.5,194.25a74.91,74.91,0,0,0,9.81-.62c10.2-1.45,9.67-.23,16.48-1.55C215.23,322.24,218.16,158.7,217.33,151.74Z" style="opacity: 0.2; transform-origin: 205.555px 246.02px;" class="animable" id="el01z306lsji95"></path></g><path d="M208.4,136.43s6.31,10,8.73,19.59c0,0-15.62-5.38-17-6.75a34.4,34.4,0,0,1,5.07-6,5,5,0,0,0-4.35,0,12.67,12.67,0,0,1,2.44-6.18S207.25,135.87,208.4,136.43Z" style="fill: rgb(38, 50, 56); transform-origin: 208.63px 146.151px;" id="elf6fq1j9n3yg" class="animable"></path><g id="elhb3c9oi7dvq"><path d="M208.4,136.43s6.31,10,8.73,19.59c0,0-15.62-5.38-17-6.75a34.4,34.4,0,0,1,5.07-6,5,5,0,0,0-4.35,0,12.67,12.67,0,0,1,2.44-6.18S207.25,135.87,208.4,136.43Z" style="fill: rgb(255, 255, 255); opacity: 0.1; transform-origin: 208.63px 146.151px;" class="animable" id="el34hsd2gxy85"></path></g><path d="M225.71,135.59s-21,13.2-26.23,17.68c-.83,7-8.54,175.1-2.41,196.09,6.81,1.33,19-2.79,29.28-2.47,5.58.18,17.57-1.54,17.57-1.54s-3.52-53.29-4.81-142.43c1.6-10.26,4.32-62.5,2.14-63.5S225.71,135.59,225.71,135.59Z" style="fill: rgb(38, 50, 56); transform-origin: 219.321px 242.608px;" id="eltsszavba9ts" class="animable"></path><g id="elp3kwlyy5ug"><path d="M236.32,150.59c-.61,7.29-1.34,23,4.55,31.39.46-7.77.87-16.39,1.06-23.82Z" style="opacity: 0.2; transform-origin: 238.924px 166.285px;" class="animable" id="elzby1mhhp7k"></path></g><g id="el13esacwkz8al"><path d="M204.86,157.55a1.53,1.53,0,1,1-1.53-1.53A1.53,1.53,0,0,1,204.86,157.55Z" style="fill: rgb(255, 255, 255); opacity: 0.2; transform-origin: 203.33px 157.55px;" class="animable" id="elp3kv28xahu"></path></g><g id="el3km3j7fszi1"><path d="M222.19,157.92a1.53,1.53,0,1,1-1.53-1.53A1.54,1.54,0,0,1,222.19,157.92Z" style="fill: rgb(255, 255, 255); opacity: 0.2; transform-origin: 220.66px 157.92px;" class="animable" id="elgju2sp9dw6i"></path></g><g id="el587skfyw74b"><path d="M203.81,181a1.53,1.53,0,1,1-1.53-1.52A1.52,1.52,0,0,1,203.81,181Z" style="fill: rgb(255, 255, 255); opacity: 0.2; transform-origin: 202.28px 181.01px;" class="animable" id="el2kgp4gi4lr4"></path></g><g id="eldtfrzr260kn"><path d="M221.14,181.39a1.53,1.53,0,1,1-1.53-1.53A1.52,1.52,0,0,1,221.14,181.39Z" style="fill: rgb(255, 255, 255); opacity: 0.2; transform-origin: 219.61px 181.39px;" class="animable" id="el48c6rtlbhjd"></path></g><g id="elgsx2v4ldrrd"><path d="M203.37,205a1.53,1.53,0,1,1-1.53-1.53A1.52,1.52,0,0,1,203.37,205Z" style="fill: rgb(255, 255, 255); opacity: 0.2; transform-origin: 201.84px 205px;" class="animable" id="el876riyr6i6k"></path></g><g id="el1wiokpqz8er"><path d="M220.7,205.37a1.53,1.53,0,1,1-1.53-1.52A1.52,1.52,0,0,1,220.7,205.37Z" style="fill: rgb(255, 255, 255); opacity: 0.2; transform-origin: 219.17px 205.38px;" class="animable" id="elpjbmwxigk7t"></path></g><g id="eline1l716nw"><path d="M202.33,229a1.53,1.53,0,1,1-1.53-1.53A1.54,1.54,0,0,1,202.33,229Z" style="fill: rgb(255, 255, 255); opacity: 0.2; transform-origin: 200.8px 229px;" class="animable" id="elcbh8tc2o3ct"></path></g><g id="el20mp9sfekqy"><path d="M219.66,229.36a1.53,1.53,0,1,1-1.53-1.53A1.54,1.54,0,0,1,219.66,229.36Z" style="fill: rgb(255, 255, 255); opacity: 0.2; transform-origin: 218.13px 229.36px;" class="animable" id="elfkxrg5m71io"></path></g><path d="M257.44,245.17a1.59,1.59,0,0,1-.48-.07L132.44,205.41a8.83,8.83,0,0,0-7.11,1.22,11.49,11.49,0,0,0-5.2,7.61,10.83,10.83,0,0,0,8.78,12.52,1.59,1.59,0,0,1-.55,3.13A14,14,0,0,1,117,213.69a14.72,14.72,0,0,1,6.64-9.76,12,12,0,0,1,9.73-1.57l124.55,39.7a1.59,1.59,0,0,1-.48,3.11Z" style="fill: #FCA311; transform-origin: 187.917px 223.558px;" id="el759yt9a3lrr" class="animable"></path><path d="M245.33,225.45l-4.69-1.19-8,7.73-.62,7.36L243,242.61s0,0,0,0l.91-6.38S249.48,228.13,245.33,225.45Z" style="fill: #FCA311; transform-origin: 239.443px 233.435px;" id="elj18os7dfedg" class="animable"></path><g id="el049cd8wv1u43"><path d="M245.33,225.45l-4.69-1.19-8,7.73-.62,7.36L243,242.61s0,0,0,0l.91-6.38S249.48,228.13,245.33,225.45Z" style="fill: rgb(255, 255, 255); opacity: 0.7; transform-origin: 239.443px 233.435px;" class="animable" id="elsl7et3x8fto"></path></g><polygon points="237.51 224.14 236.32 227.53 248.34 232.56 249.03 228.34 237.51 224.14" style="fill: #FCA311; transform-origin: 242.675px 228.35px;" id="el8j1u668czg9" class="animable"></polygon><g id="el1vwdhlc2wqi"><polygon points="237.51 224.14 236.32 227.53 248.34 232.56 249.03 228.34 237.51 224.14" style="fill: rgb(255, 255, 255); opacity: 0.8; transform-origin: 242.675px 228.35px;" class="animable" id="elm0wb1mov3i"></polygon></g><path d="M241.48,139.75l.64.68.54.6,1,1.18q1,1.18,1.95,2.37,1.89,2.4,3.62,4.9a80.25,80.25,0,0,1,6.26,10.6,60.5,60.5,0,0,1,4.45,12,47.5,47.5,0,0,1,1.13,6.61l.13,1.71,0,1.83,0,1.71-.1,1.65a87.61,87.61,0,0,1-1.9,12c-.84,3.79-1.79,7.49-2.83,11.14-2.1,7.31-4.41,14.35-7,21.53l-13.56-4.81c2.19-6.72,4.23-13.74,5.94-20.62.86-3.46,1.63-6.91,2.26-10.32a72.62,72.62,0,0,0,1.23-9.84c.28-5.39-1.73-11.21-4.8-16.78a64.3,64.3,0,0,0-5.36-8.12c-1-1.31-2.05-2.58-3.13-3.82-.54-.62-1.09-1.22-1.64-1.81l-.83-.86-.4-.4-.32-.31Z" style="fill: rgb(38, 50, 56); transform-origin: 244.98px 185.005px;" id="el0tj8ejkzqh" class="animable"></path><path d="M225.38,135.52s-15.79,8.85-25.9,17.75c0,0,25.2-3.08,28.09-4.22a17.68,17.68,0,0,0-2.65-6.51s4-.82,6,.59a60.81,60.81,0,0,0,.21-6.48S227.35,135.14,225.38,135.52Z" style="fill: rgb(38, 50, 56); transform-origin: 215.312px 144.364px;" id="elcmt12bnbba6" class="animable"></path><g id="el5l8knha0nvp"><path d="M225.38,135.52s-15.79,8.85-25.9,17.75c0,0,25.2-3.08,28.09-4.22a17.68,17.68,0,0,0-2.65-6.51s4-.82,6,.59a60.81,60.81,0,0,0,.21-6.48S227.35,135.14,225.38,135.52Z" style="fill: rgb(255, 255, 255); opacity: 0.2; transform-origin: 215.312px 144.364px;" class="animable" id="el58bmytj3mvn"></path></g><path d="M203.48,416.23h-5.56a.65.65,0,0,1-.64-.81l.48-1.91,6.15-.65.22,2.66A.65.65,0,0,1,203.48,416.23Z" style="fill: rgb(38, 50, 56); transform-origin: 200.696px 414.545px;" id="elr4rdwotcbd" class="animable"></path><path d="M204.09,98.15c-3.27,1.59,3.5,6,11.79,4.39s13-1.84,16.17,2.32,3.91-1.53,2.29-3.75c-2.51-3.42-10.81-3.72-16.39-2.33S208.11,96.19,204.09,98.15Z" style="fill: rgb(38, 50, 56); transform-origin: 219.211px 101.969px;" id="elhtborg6hdzq" class="animable"></path><g id="elbmlq2ia0un"><path d="M204.09,98.15c-3.27,1.59,3.5,6,11.79,4.39s13-1.84,16.17,2.32,3.91-1.53,2.29-3.75c-2.51-3.42-10.81-3.72-16.39-2.33S208.11,96.19,204.09,98.15Z" style="fill: rgb(255, 255, 255); opacity: 0.2; transform-origin: 219.211px 101.969px;" class="animable" id="el4zi33rq15mx"></path></g><path d="M208.85,98.18l2.06-19.78c3.52-.9,20.79,1.46,25.07,3.59L231,101C223.7,101.43,211.32,99.88,208.85,98.18Z" style="fill: rgb(38, 50, 56); transform-origin: 222.415px 89.6379px;" id="el0fdo48k8zgk" class="animable"></path><g id="elzizh2bi9gk"><path d="M227.7,79.79c-.79,4.27-2.88,15.44-3.95,21.11,1.51.1,3,.15,4.39.15l4.37-20.22C231.11,80.47,229.46,80.11,227.7,79.79Z" style="fill: rgb(255, 255, 255); opacity: 0.2; transform-origin: 228.13px 90.42px;" class="animable" id="el3y9ad2ng4s8"></path></g><path d="M208.74,97.79l.21-4.5a.76.76,0,0,1,.65-.73c4.28-.53,17.72,1.42,22.51,3.35a.76.76,0,0,1,.43,1l-1.27,3.83a.77.77,0,0,1-.68.53c-7,.33-18.24-1.14-21.42-2.71A.77.77,0,0,1,208.74,97.79Z" style="fill: #FCA311; transform-origin: 220.667px 96.8942px;" id="elnwbtmtlig1l" class="animable"></path><path d="M209.79,117.74c.65-1.39,4.08-.4,5.32,1.21.93,1.23,2.3-.17,2.1-.79.59.75.65,3.4-2.58,2.43S208.72,120,209.79,117.74Z" style="fill: rgb(38, 50, 56); transform-origin: 213.537px 118.939px;" id="elfs10j5nb2b9" class="animable"></path><path d="M210,117.83c0-1.08-2-1.07-3.12.55-.83,1.23-1.15-.58-1.28-1.15-.52.75-1.14,3.77,1.69,2.78C209.13,119.37,210,119.83,210,117.83Z" style="fill: rgb(38, 50, 56); transform-origin: 207.577px 118.644px;" id="elwnjj5v7wc6" class="animable"></path><g id="elmpd6eu13ucf"><path d="M235.53,220.33l-12.86-.87a1.67,1.67,0,0,1-1.53-1.63v-3.66a1.42,1.42,0,0,1,1.53-1.43l12.86.86a1.68,1.68,0,0,1,1.53,1.64v3.66A1.42,1.42,0,0,1,235.53,220.33Z" style="fill: rgb(255, 255, 255); opacity: 0.1; transform-origin: 229.1px 216.535px;" class="animable" id="elpnhb6o2f3sf"></path></g></g><g id="freepik--character-2--inject-4" class="animable animator-hidden" style="transform-origin: 294.629px 268.651px;"><path d="M292.4,161.66a4.13,4.13,0,1,0,4.4-4.33A4.37,4.37,0,0,0,292.4,161.66Z" style="fill: rgb(38, 50, 56); transform-origin: 296.527px 161.455px;" id="elx38veld56h" class="animable"></path><path d="M298.61,161.92a4.13,4.13,0,1,0,2.18-5.78A4.39,4.39,0,0,0,298.61,161.92Z" style="fill: rgb(38, 50, 56); transform-origin: 302.312px 159.998px;" id="elw580hc51zld" class="animable"></path><path d="M304.31,159.72a4.13,4.13,0,1,0-1.08-6.08A4.39,4.39,0,0,0,304.31,159.72Z" style="fill: rgb(38, 50, 56); transform-origin: 306.527px 156.2px;" id="el6ugmwrpd3c2" class="animable"></path><path d="M311.7,156.28a4.13,4.13,0,1,0-5.49-2.83A4.39,4.39,0,0,0,311.7,156.28Z" style="fill: rgb(38, 50, 56); transform-origin: 310.211px 152.39px;" id="elgbprelssexn" class="animable"></path><path d="M275.2,229.86s-12,53.3-7.47,90.71c3,25.06,15.91,84.73,15.91,84.73l8.86-1.85s-7.59-61-8.7-81.8C281.89,286.11,296,229.8,296,229.8Z" id="elbmyptv9rull" class="animable" style="transform-origin: 281.354px 317.55px;"></path><path d="M283.47,404.72l9.07-1.48a.63.63,0,0,1,.75.47l1.49,7.36a1.59,1.59,0,0,1-1.38,1.72c-3.58.55-4.2.79-8.66,1.44-2.74.4-8.86,2.63-12.69,2s-1.36-3.09-.62-3.28c7.25-1.85,8.26-5.28,10.56-7.51A2.71,2.71,0,0,1,283.47,404.72Z" style="fill: rgb(38, 50, 56); transform-origin: 282.375px 409.783px;" id="elisjan0vqh" class="animable"></path><polygon points="294.8 411.18 294.63 416.24 288.49 416.24 287.81 412.25 294.8 411.18" style="fill: rgb(38, 50, 56); transform-origin: 291.305px 413.71px;" id="els2mi2lv7uw" class="animable"></polygon><path d="M283.11,229.94s-3.26,55.39,3.86,88.41c5.76,26.66,25.78,86.42,25.78,86.42l9-3.5s-15-66.42-17.13-84.08c-5.51-45.2,4.5-70.18-2.62-87.42Z" id="eld4om5r2uear" class="animable" style="transform-origin: 302.058px 317.27px;"></path><path d="M311.78,403.08l10.1-2.63a.61.61,0,0,1,.78.43l1.93,7.73a1.77,1.77,0,0,1-1.28,2c-3.56,1-5.25,1.38-9.69,2.53-2.73.71-7.47,3.12-11.36,3.12-2.31,0-1.22-2.95-.46-3.18,5.29-1.61,6.35-6.41,8.53-9A2.8,2.8,0,0,1,311.78,403.08Z" style="fill: rgb(38, 50, 56); transform-origin: 312.741px 408.34px;" id="eljlzeday3xb" class="animable"></path><polygon points="324.82 409.66 325.16 413.56 319.08 414.56 317.93 411.27 324.51 408.27 324.82 409.66" style="fill: rgb(38, 50, 56); transform-origin: 321.545px 411.415px;" id="el40g4p9zwq2r" class="animable"></polygon><path d="M267.75,266.23l39-1s.85,27.17,2.14,44.13,16.47,81.16,16.29,85.24-18.13,6.4-24.29,5.78-16.26,1.54-23.56,1.31S261.23,299.51,267.75,266.23Z" style="fill: rgb(38, 50, 56); transform-origin: 295.325px 333.469px;" id="elber2d2es6cf" class="animable"></path><g id="el3fiw85za42"><path d="M267.76,266.22l39-.94s.14,4.38.39,10.71c-15.55,3.19-32.43,2.85-40.8,1.34A99.85,99.85,0,0,1,267.76,266.22Z" style="opacity: 0.2; transform-origin: 286.75px 271.861px;" class="animable" id="elj4oowcn186a"></path></g><path d="M269.37,194.22c-.75,11,5.84,9.44,4,32.87-1,12.43-6.69,26.12-8.53,47.53,8.06,1.82,27.31,2.39,44.38-1.5a125.94,125.94,0,0,0-3.64-51.27c-4.37-15.59,9.16-26.32,10.58-39.28a5.73,5.73,0,0,0-4.9-6.26c-2.56-.37-5.66-.73-8.79-.87a111.19,111.19,0,0,0-15.94,0c-4,.37-8.34,1.12-11.3,1.67C272.78,177.62,269.73,188.83,269.37,194.22Z" style="fill: rgb(38, 50, 56); transform-origin: 290.515px 225.59px;" id="elbw643absfw5" class="animable"></path><g id="elaaug2vy74qs"><path d="M306.78,185c-2.25,5.15-2.57,14.43-.65,22.49,1.4-4.34,3.67-8.4,5.7-12.45.06-.74.12-1.48.17-2.2Z" style="opacity: 0.2; transform-origin: 308.435px 196.245px;" class="animable" id="el8odgt4jpjg7"></path></g><path d="M297.9,157.57c-.88,5.15-1.49,14.57,2.17,17.9,0,0-2.26,2.42-12.9,7.71a24.52,24.52,0,0,1-2.93-5.31,2,2,0,0,1,1.07-2.47c4.3-1.78,4-5.63,3-9.25Z" style="fill: rgb(255, 195, 189); transform-origin: 292.101px 170.375px;" id="elyvv9bfxrubj" class="animable"></path><g id="elw0a4zjr4omf"><path d="M294,161.07l-5.68,5.07a15.81,15.81,0,0,1,.56,2.82c2.18-.37,5.42-2.4,5.6-4.69A9.41,9.41,0,0,0,294,161.07Z" style="opacity: 0.2; transform-origin: 291.401px 165.015px;" class="animable" id="el2kj4zjl70hl"></path></g><path d="M293.16,136.08c2,5.22-5.11,1.64-7.88,2.91,0,0-1.32,5.1-4.69,3.2s-3.25-4.72-1.19-7.35C281.33,132.39,290.76,130,293.16,136.08Z" style="fill: rgb(38, 50, 56); transform-origin: 285.724px 137.431px;" id="elfx1ox7j71ze" class="animable"></path><path d="M277.22,144.12a4.2,4.2,0,1,0,3.61-5.14A4.46,4.46,0,0,0,277.22,144.12Z" style="fill: rgb(38, 50, 56); transform-origin: 281.332px 143.153px;" id="el2pbhjzpfrda" class="animable"></path><path d="M283.29,133.85c-2.29,6.85-4.43,19.91,2.49,24.67s17-2.84,22.59-7.42,3.61-13.17-3.64-20C295,122,284.64,129.83,283.29,133.85Z" style="fill: rgb(38, 50, 56); transform-origin: 296.336px 143.453px;" id="elgz9xjg2ll3r" class="animable"></path><path d="M303,149.76c-2.68,8.14-3.64,11.65-8.94,14.8-8,4.73-17.38-.35-17.18-9.13.17-7.9,4.53-19.89,13.5-21.05A11.69,11.69,0,0,1,303,149.76Z" style="fill: rgb(255, 195, 189); transform-origin: 290.255px 150.321px;" id="el0eqhf6sm2job" class="animable"></path><path d="M282.16,146.75c-.18.67-.68,1.13-1.12,1s-.65-.76-.48-1.43.68-1.13,1.12-1S282.34,146.08,282.16,146.75Z" style="fill: rgb(38, 50, 56); transform-origin: 281.362px 146.535px;" id="el0ifqug1u2yq" class="animable"></path><path d="M281.87,145.41l-1.5-.89S280.87,146,281.87,145.41Z" style="fill: rgb(38, 50, 56); transform-origin: 281.12px 145.034px;" id="el9ib1m0un6hm" class="animable"></path><g id="eldyextktfomh"><ellipse cx="298.84" cy="152.75" rx="4.11" ry="3.65" style="fill: rgb(38, 50, 56); transform-origin: 298.84px 152.75px; transform: rotate(-71.04deg);" class="animable" id="el7g42xrn20w8"></ellipse></g><path d="M303.16,157.37a6.78,6.78,0,0,1-4.08,3c-2.19.52-3-1.59-2.24-3.72.73-1.92,2.74-4.5,4.84-4.06S304.33,155.49,303.16,157.37Z" style="fill: rgb(255, 195, 189); transform-origin: 300.163px 156.495px;" id="el19lch69bczw" class="animable"></path><path d="M289.81,148.77c-.18.68-.68,1.13-1.12,1s-.65-.75-.47-1.43.67-1.12,1.12-1S290,148.1,289.81,148.77Z" style="fill: rgb(38, 50, 56); transform-origin: 289.018px 148.556px;" id="el4snbtju8div" class="animable"></path><path d="M283.9,148.46a18.49,18.49,0,0,1-3.53,3.67,3,3,0,0,0,2.28,1.08Z" style="fill: rgb(237, 132, 126); transform-origin: 282.135px 150.835px;" id="elt103otp7rnc" class="animable"></path><path d="M285.6,156.66a6,6,0,0,1-1.26-.21.16.16,0,0,1-.12-.2.16.16,0,0,1,.2-.13,5.54,5.54,0,0,0,4.94-1,.17.17,0,0,1,.24,0,.18.18,0,0,1,0,.24A5.76,5.76,0,0,1,285.6,156.66Z" style="fill: rgb(38, 50, 56); transform-origin: 286.93px 155.87px;" id="elffri2s5o81g" class="animable"></path><path d="M292.64,146a.34.34,0,0,1-.27-.21,3.32,3.32,0,0,0-2.23-2,.33.33,0,0,1-.27-.4.34.34,0,0,1,.4-.27,4,4,0,0,1,2.73,2.45.34.34,0,0,1-.18.44A.37.37,0,0,1,292.64,146Z" style="fill: rgb(38, 50, 56); transform-origin: 291.443px 144.565px;" id="elr3w561ptfzh" class="animable"></path><path d="M279.51,142.87a.34.34,0,0,1-.3-.59,4,4,0,0,1,3.54-1,.34.34,0,0,1-.18.66,3.28,3.28,0,0,0-2.91.82A.31.31,0,0,1,279.51,142.87Z" style="fill: rgb(38, 50, 56); transform-origin: 281.045px 142.039px;" id="elysqx8x6alh" class="animable"></path><path d="M284.43,242.05l7.61-1.28,3,1.36c-.65,5-5.34,7.26-5.34,7.26l-5.88,2.15-4.43-4.74Z" style="fill: #FCA311; transform-origin: 287.215px 246.155px;" id="elalav2228e3e" class="animable"></path><g id="elfq9fvxvd715"><path d="M284.43,242.05l7.61-1.28,3,1.36c-.65,5-5.34,7.26-5.34,7.26l-5.88,2.15-4.43-4.74Z" style="fill: rgb(255, 255, 255); opacity: 0.8; transform-origin: 287.215px 246.155px;" class="animable" id="elyina5e79g7"></path></g><path d="M295.26,236.2c-2.44.38-5.92,0-6.42,1.11-.7,1.65.64,2,.64,2a1.79,1.79,0,0,0-.69,2.48,2.11,2.11,0,0,0,2.37,1.42,2.14,2.14,0,0,0-.79,2.59c.77,1.59,2.9,1.25,2.9,1.25s-.08,2.33,2.46,1.66c1.95-.51,4.07-4.44,4.07-4.44Z" style="fill: rgb(255, 255, 255); transform-origin: 294.172px 242.516px;" id="elykt750i7joi" class="animable"></path><path d="M315.5,180.49c1,2.95,1.94,5.74,2.85,8.63s1.85,5.74,2.73,8.66,1.72,5.86,2.46,8.92l.52,2.33.48,2.42c.15.82.25,1.71.37,2.57,0,.16.06.59.08.9s0,.66,0,1a14.33,14.33,0,0,1-.15,1.89,19.82,19.82,0,0,1-2.08,6.2,30.92,30.92,0,0,1-3,4.64A59.64,59.64,0,0,1,313,236c-2.35,2.19-4.75,4.21-7.2,6.15-1.22,1-2.45,1.93-3.7,2.87l-1.9,1.38c-.65.48-1.23.91-2,1.43l-7.43-12.44c.49-.24,1.15-.6,1.73-.92l1.79-1c1.18-.71,2.36-1.45,3.51-2.21a72.18,72.18,0,0,0,6.56-4.9,41.34,41.34,0,0,0,5.42-5.41,11.87,11.87,0,0,0,2.63-4.82c0-.12,0-.22,0-.31s0-.08,0-.11,0,0,0-.19c-.09-.6-.16-1.17-.27-1.79l-.39-1.91-.48-2c-.71-2.64-1.54-5.34-2.48-8a165,165,0,0,0-6.49-15.87Z" style="fill: rgb(38, 50, 56); transform-origin: 307.884px 214.16px;" id="elio9pasbdzy" class="animable"></path><path d="M272.81,244.15l3.18-.48,6.27,2.72,3.88,5-6.23,4.36-5.16-4.47A7.17,7.17,0,0,1,272.81,244.15Z" style="fill: #FCA311; transform-origin: 279.34px 249.71px;" id="elcs77q001bsk" class="animable"></path><g id="elvy9m84r9b3g"><path d="M272.81,244.15l3.18-.48,6.27,2.72,3.88,5-6.23,4.36-5.16-4.47A7.17,7.17,0,0,1,272.81,244.15Z" style="fill: rgb(255, 255, 255); opacity: 0.9; transform-origin: 279.34px 249.71px;" class="animable" id="eliseudu3jm1q"></path></g><path d="M274.1,237.26c2,1.38,6,2.91,6,4.05,0,1.62-1.39,1.28-1.39,1.28a1.5,1.5,0,0,1-.39,2.27,2.23,2.23,0,0,1-2.72.09s.94,1.51-.35,2.41-3.12-.28-3.12-.28-.89,1.89-2.91.24c-1.54-1.27-1.84-5.34-1.84-5.34Z" style="fill: rgb(255, 255, 255); transform-origin: 273.74px 242.628px;" id="elrhlyu4zo5gj" class="animable"></path><path d="M286.36,185.4c-2.67,4.36-5.23,9-7.53,13.62-1.14,2.32-2.24,4.64-3.22,7a58.46,58.46,0,0,0-2.49,6.79,14.34,14.34,0,0,0-.52,2.57,24.75,24.75,0,0,0,.09,3.17,42.84,42.84,0,0,0,1.26,6.92,60,60,0,0,0,2.33,7c.45,1.15,1,2.29,1.48,3.42l.81,1.67c.26.54.58,1.12.82,1.53l-13.21,6c-.29-.82-.49-1.46-.72-2.16l-.67-2.05-1.21-4.09c-.78-2.75-1.5-5.51-2.1-8.35a70.26,70.26,0,0,1-1.33-8.85,44.39,44.39,0,0,1-.11-4.81,25.22,25.22,0,0,1,.93-5.27,80.18,80.18,0,0,1,2.83-8.28c1-2.6,2.09-5.16,3.21-7.66,2.21-5,4.46-9.92,6.84-14.94Z" style="fill: rgb(38, 50, 56); transform-origin: 273.189px 211.86px;" id="elyzvqdgbd1j" class="animable"></path><g id="el8li1t8gawmc"><path d="M269.36,197.4a37.19,37.19,0,0,0,3.23,18.77c0-.29,0-.56,0-.82a15.3,15.3,0,0,1,.52-2.57c0-.16.09-.32.14-.48C272.23,204.87,269.76,202.72,269.36,197.4Z" style="opacity: 0.2; transform-origin: 271.232px 206.785px;" class="animable" id="elggkekqx9g05"></path></g><path d="M306.85,175.45a38.28,38.28,0,0,0-7.77-2.41c-1.77,3.06-13.3,14.31-13.3,14.31S301,186.49,306.85,175.45Z" style="fill: #FCA311; transform-origin: 296.315px 180.195px;" id="elcrpnarlgamg" class="animable"></path><path d="M279.78,176.06s5.7-3.28,10.56-3.05c-.12,3.53-4.56,14.34-4.56,14.34S279.56,184.74,279.78,176.06Z" style="fill: #FCA311; transform-origin: 285.057px 180.174px;" id="el19dttqkv1uji" class="animable"></path><path d="M283.53,176.69c-.75,1.73-1.82,5.91,2.25,10.66,10.65-5.3,14.29-11.88,14.29-11.88s-2.06-4.32-1.91-6.94c.52-.22.75-1.7-.21-1.65s-6.16,2.08-7.45,2-2.28-1.17-2.7-.3a1,1,0,0,0,.33,1.31s1.27,3.89-3.5,5.69A2,2,0,0,0,283.53,176.69Z" style="fill: #FCA311; transform-origin: 291.445px 177.114px;" id="elgbg84fpbi9l" class="animable"></path><g id="el3t1p7gasxdb"><path d="M283.53,176.69c-.75,1.73-1.82,5.91,2.25,10.66,10.65-5.3,14.29-11.88,14.29-11.88s-2.06-4.32-1.91-6.94c.52-.22.75-1.7-.21-1.65s-6.16,2.08-7.45,2-2.28-1.17-2.7-.3a1,1,0,0,0,.33,1.31s1.27,3.89-3.5,5.69A2,2,0,0,0,283.53,176.69Z" style="fill: rgb(255, 255, 255); opacity: 0.6; transform-origin: 291.445px 177.114px;" class="animable" id="elzxp5g4ezchk"></path></g><path d="M289.52,147.43l-1.5-.89S288.52,148,289.52,147.43Z" style="fill: rgb(38, 50, 56); transform-origin: 288.77px 147.051px;" id="eljrqn5cf1mik" class="animable"></path><path d="M289,135.24c-4.12,2.51,1.2,7.14,5.07,6.81a2.52,2.52,0,0,0,2.22,3.5c3.3.45,5.27-3,4.23-4.86S293.85,132.3,289,135.24Z" style="fill: rgb(38, 50, 56); transform-origin: 294.154px 140.04px;" id="elk5m52kmptw" class="animable"></path><path d="M295.16,148.24a3,3,0,1,0,2-4.09A3.22,3.22,0,0,0,295.16,148.24Z" style="fill: rgb(38, 50, 56); transform-origin: 297.951px 147.053px;" id="elrdtsyp2lgg" class="animable"></path><path d="M286.73,132.21a3,3,0,1,0,4.12,1.94A3.24,3.24,0,0,0,286.73,132.21Z" style="fill: rgb(38, 50, 56); transform-origin: 287.958px 134.986px;" id="el8eyb4l4ak3a" class="animable"></path><path d="M293.86,130.83c-2.79-.11-5.1,1.16-5.16,2.83s2.14,3.1,4.93,3.2,5.1-1.16,5.16-2.83S296.64,130.93,293.86,130.83Z" style="fill: rgb(38, 50, 56); transform-origin: 293.745px 133.844px;" id="elwxcpvo0o0hg" class="animable"></path><path d="M297.87,132.83c-1.8.53-2.08,5-.61,9.95s4.1,8.57,5.91,8,2.08-5,.62-9.95S299.68,132.3,297.87,132.83Z" style="fill: rgb(38, 50, 56); transform-origin: 300.523px 141.809px;" id="elmbt10ax2isg" class="animable"></path><path d="M281,135.93a2.41,2.41,0,1,0,3.5-.86A2.56,2.56,0,0,0,281,135.93Z" style="fill: rgb(38, 50, 56); transform-origin: 283.132px 137.085px;" id="elp50og2rgbpo" class="animable"></path><path d="M297.61,153.09a3,3,0,1,0,2-4.08A3.23,3.23,0,0,0,297.61,153.09Z" style="fill: rgb(38, 50, 56); transform-origin: 300.405px 151.912px;" id="elr51h5j8v7ba" class="animable"></path><path d="M301.3,153.36a3,3,0,1,0,2-4.09A3.24,3.24,0,0,0,301.3,153.36Z" style="fill: rgb(38, 50, 56); transform-origin: 304.093px 152.173px;" id="eliji8avfnsth" class="animable"></path><path d="M306.31,152.39a3,3,0,1,0,.1-4.55A3.24,3.24,0,0,0,306.31,152.39Z" style="fill: rgb(38, 50, 56); transform-origin: 308.37px 150.158px;" id="elyfymmpxc98o" class="animable"></path><path d="M312.34,150.07a3.48,3.48,0,1,0-2.57-4.53A3.7,3.7,0,0,0,312.34,150.07Z" style="fill: rgb(38, 50, 56); transform-origin: 313.092px 146.666px;" id="elkk2a4e03bin" class="animable"></path><path d="M314.51,143.73a3,3,0,1,0-4.51-.62A3.23,3.23,0,0,0,314.51,143.73Z" style="fill: rgb(38, 50, 56); transform-origin: 312.521px 141.432px;" id="el4wkrvtap8ns" class="animable"></path><path d="M291.94,131.27a3,3,0,1,0-3.44-3A3.23,3.23,0,0,0,291.94,131.27Z" style="fill: rgb(38, 50, 56); transform-origin: 291.5px 128.29px;" id="el8zjugevssv" class="animable"></path><path d="M287.7,133.29a3,3,0,1,0-3.44-3A3.22,3.22,0,0,0,287.7,133.29Z" style="fill: rgb(38, 50, 56); transform-origin: 287.26px 130.31px;" id="eld6wvg09gdya" class="animable"></path><path d="M284.8,135.63a3,3,0,1,0-3.44-3A3.24,3.24,0,0,0,284.8,135.63Z" style="fill: rgb(38, 50, 56); transform-origin: 284.36px 132.65px;" id="eldn6ekk7mw" class="animable"></path><path d="M312.35,139.65a3.69,3.69,0,1,0-5.34-1.39A3.92,3.92,0,0,0,312.35,139.65Z" style="fill: rgb(38, 50, 56); transform-origin: 310.297px 136.537px;" id="elcymkk2ng4zt" class="animable"></path><path d="M311.22,133.92a3.68,3.68,0,1,0-5.48.56A3.91,3.91,0,0,0,311.22,133.92Z" style="fill: rgb(38, 50, 56); transform-origin: 308.232px 131.721px;" id="elab2hw61vbg7" class="animable"></path><path d="M304.8,131.78c2.24-.38,3.8-2.22,3.48-4.1s-2.41-3.09-4.65-2.7-3.8,2.22-3.48,4.1S302.56,132.17,304.8,131.78Z" style="fill: rgb(38, 50, 56); transform-origin: 304.215px 128.38px;" id="elcje9ofavowj" class="animable"></path><path d="M297.78,130.13c2.28,0,4.15-1.47,4.19-3.38s-1.78-3.48-4.06-3.53-4.15,1.47-4.18,3.38S295.51,130.09,297.78,130.13Z" style="fill: rgb(38, 50, 56); transform-origin: 297.85px 126.674px;" id="elfoa1pzsii2q" class="animable"></path><path d="M308.46,125.4c10.3,6.22,14.34,18.39,9,27.2l-37.3-22.5C285.5,121.29,298.16,119.19,308.46,125.4Z" style="fill: #FCA311; transform-origin: 299.989px 137.216px;" id="el56de8mvsi7h" class="animable"></path><g id="el5annrwhy6s6"><path d="M308.46,125.4c10.3,6.22,14.34,18.39,9,27.2l-37.3-22.5C285.5,121.29,298.16,119.19,308.46,125.4Z" style="opacity: 0.1; transform-origin: 299.989px 137.216px;" class="animable" id="elouz9nuxoom"></path></g><path d="M268.48,123c-.78,1.3,12.18,10.55,28.94,20.66s31,17.26,31.78,16S317,149.12,300.25,139,269.26,121.75,268.48,123Z" style="fill: rgb(38, 50, 56); transform-origin: 298.84px 141.331px;" id="els48m69m7o7d" class="animable"></path><path d="M321.71,148.57c3-2,.8-3.9,2.42-5.18s5.57-3.6,2.41-5.79c-3.65-2.53-8.25-2.38-10.27-.29,0,1.63-3.27,4.82-3.27,4.82Z" style="fill: rgb(38, 50, 56); transform-origin: 320.365px 142.146px;" id="elgfw6pf38l3" class="animable"></path><path d="M312.54,142.06c.91.63,2.51-1,3.41-2.39s1.56-2.9.08-3.4a5.15,5.15,0,0,1-2.73-1.71c-.65-.79-2.11-1.23-2.64.22s-1.67,3.91-2.46,4.49A41.76,41.76,0,0,0,312.54,142.06Z" style="fill: rgb(38, 50, 56); transform-origin: 312.552px 138.014px;" id="el5aps3ceod82" class="animable"></path><g id="el60a3u9dndfm"><path d="M312.54,142.06c.91.63,2.51-1,3.41-2.39s1.56-2.9.08-3.4a5.15,5.15,0,0,1-2.73-1.71c-.65-.79-2.11-1.23-2.64.22s-1.67,3.91-2.46,4.49A41.76,41.76,0,0,0,312.54,142.06Z" style="opacity: 0.4; transform-origin: 312.552px 138.014px;" class="animable" id="elackqlz2ylzl"></path></g><path d="M298.25,134.4c.35-3.54,3.07-2.52,3.45-4.54s.59-6.61,4-4.84c3.94,2,6.32,6.83,6,9.53.33,2.44-2.74,5.14-2.74,5.14Z" style="fill: rgb(38, 50, 56); transform-origin: 304.989px 132.156px;" id="elix3jhkvziz" class="animable"></path><path d="M268.79,122.9l6.52-1.94a199.36,199.36,0,0,1,52.55,31.69l1.32,6.67c-.88-2.14-13.23-10.85-28.93-20.31S271.09,122.68,268.79,122.9Z" style="fill: #FCA311; transform-origin: 298.985px 140.14px;" id="el0zcot4nnihdm" class="animable"></path><path d="M329.2,159.66l0-.34A.38.38,0,0,1,329.2,159.66Z" style="fill: rgb(38, 50, 56); transform-origin: 329.22px 159.49px;" id="eloavua0qrqi" class="animable"></path><path d="M268.79,122.9l-.31.14A.38.38,0,0,1,268.79,122.9Z" style="fill: rgb(38, 50, 56); transform-origin: 268.635px 122.97px;" id="elkmxjt4psc77" class="animable"></path></g><defs>     <filter id="active" height="200%">         <feMorphology in="SourceAlpha" result="DILATED" operator="dilate" radius="2"></feMorphology>                <feFlood flood-color="#32DFEC" flood-opacity="1" result="PINK"></feFlood>        <feComposite in="PINK" in2="DILATED" operator="in" result="OUTLINE"></feComposite>        <feMerge>            <feMergeNode in="OUTLINE"></feMergeNode>            <feMergeNode in="SourceGraphic"></feMergeNode>        </feMerge>    </filter>    <filter id="hover" height="200%">        <feMorphology in="SourceAlpha" result="DILATED" operator="dilate" radius="2"></feMorphology>                <feFlood flood-color="#ff0000" flood-opacity="0.5" result="PINK"></feFlood>        <feComposite in="PINK" in2="DILATED" operator="in" result="OUTLINE"></feComposite>        <feMerge>            <feMergeNode in="OUTLINE"></feMergeNode>            <feMergeNode in="SourceGraphic"></feMergeNode>        </feMerge>            <feColorMatrix type="matrix" values="0   0   0   0   0                0   1   0   0   0                0   0   0   0   0                0   0   0   1   0 "></feColorMatrix>    </filter></defs></svg>